<?xml version="1.0" encoding="utf-8"?>
<!-- Generator: Adobe Illustrator 23.0.4, SVG Export Plug-In . SVG Version: 6.00 Build 0)  -->
<svg version="1.1" id="Layer_1" xmlns="http://www.w3.org/2000/svg" xmlns:xlink="http://www.w3.org/1999/xlink" x="0px" y="0px"
	 viewBox="0 0 675 675" style="enable-background:new 0 0 675 675;" xml:space="preserve">
<style type="text/css">
	.st0{stroke:#000000;stroke-miterlimit:10;}
	.st1{fill:none;}
	.st2{fill:url(#XMLID_3_);}
	.st3{fill:#FFFFFF;}
</style>
<rect x="-2.2" class="st0" width="675" height="675"/>
<g id="XMLID_1_">
	<path id="XMLID_18_" class="st1" d="M238.9,392.5l19-6L417.5,336c5.8-1.9,11.4-4.1,16.7-6.5c73.3-33.2,113.2-116.7,87.9-196.3
		C495,47.6,403.6,0.2,318,27.2L160,77.3L142.2,83L238.9,392.5L238.9,392.5z M355.6,58.1c68.3,0,123.5,55.3,123.5,123.5
		s-55.3,123.5-123.5,123.5S232,249.9,232,181.6S287.3,58.1,355.6,58.1z"/>
	<circle id="XMLID_19_" class="st1" cx="355.6" cy="181.5" r="106.8"/>
	<polygon id="XMLID_20_" class="st1" points="137,655.9 306.9,655.9 137,117.5 	"/>
	
		<linearGradient id="XMLID_3_" gradientUnits="userSpaceOnUse" x1="48.3059" y1="387.9092" x2="195.2937" y2="472.7726" gradientTransform="matrix(1 0 0 -1 0 676)">
		<stop  offset="0.2677" style="stop-color:#141414"/>
		<stop  offset="0.7825" style="stop-color:#292927"/>
		<stop  offset="1" style="stop-color:#000000"/>
	</linearGradient>
	<rect id="XMLID_21_" x="121.8" y="75.9" class="st2" width="0" height="339.5"/>
	<path id="XMLID_24_" class="st3" d="M322,655.9l-71.3-225.4l-7.3-23.4L422,350.5c93.2-29.5,145.6-129.2,116.1-222.4
		C508.7,35,408.1-17.2,315,12.2L121.8,73.3v2.5v339.5V671h426.9v-15.2L322,655.9z M160,77.2l158-50.1C403.6,0.1,495,47.6,522.1,133
		c25.3,79.6-14.7,163.1-87.9,196.3c-5.5,2.5-11,4.7-16.7,6.5l-159.6,50.5l-19,6l0,0L142.2,82.8L160,77.2z M137,655.9V117.5
		l169.8,538.4H137z"/>
	<path id="XMLID_28_" class="st3" d="M355.6,305c68.3,0,123.5-55.3,123.5-123.5S423.8,58,355.6,58S232,113.2,232,181.5
		S287.3,305,355.6,305z M355.6,74.7c59,0,106.8,47.8,106.8,106.8s-47.8,106.8-106.8,106.8s-106.8-47.8-106.8-106.8
		S296.5,74.7,355.6,74.7z"/>
</g>
</svg>
